<?xml version="1.0" encoding="iso-8859-1"?>
<!-- Generator: Adobe Illustrator 16.0.0, SVG Export Plug-In . SVG Version: 6.00 Build 0)  -->
<!DOCTYPE svg PUBLIC "-//W3C//DTD SVG 1.1//EN" "http://www.w3.org/Graphics/SVG/1.1/DTD/svg11.dtd">
<svg version="1.1" id="Capa_1" xmlns="http://www.w3.org/2000/svg" xmlns:xlink="http://www.w3.org/1999/xlink" x="0px" y="0px"
	 width="500px" height="500px" viewBox="0 0 500 500" style="enable-background:new 0 0 500 500;" xml:space="preserve">
<g>
	<g>
		<path d="M437.628,384.036h-51.045l-29.619-211.372c-1.329-9.482-9.441-16.54-19.018-16.54H155.693
			c-9.576,0-17.689,7.058-19.018,16.54l-29.617,211.372H61.966c-10.606,0-19.203,8.598-19.203,19.202v71.348
			c0,10.606,8.597,19.204,19.203,19.204h375.662c10.604,0,19.202-8.598,19.202-19.204v-71.348
			C456.83,392.633,448.232,384.036,437.628,384.036z M136.972,384.21l27.712-198.182h164.271l27.713,198.182H136.972z"/>
		<path d="M83.547,139.895c3.134,4.404,8.081,6.754,13.107,6.754c3.221,0,6.475-0.968,9.299-2.976
			c7.232-5.145,8.922-15.178,3.779-22.408L71.925,68.125c-5.144-7.232-15.177-8.923-22.407-3.779
			c-7.232,5.146-8.922,15.176-3.778,22.406L83.547,139.895z"/>
		<path d="M249.796,117.922c8.875,0,16.067-7.192,16.067-16.067V22.278c0-8.874-7.192-16.068-16.067-16.068
			c-8.875,0-16.068,7.194-16.068,16.068v79.576C233.728,110.73,240.921,117.922,249.796,117.922z"/>
		<path d="M80.023,259.544c8.324,0,15.368-6.421,16.005-14.858c0.668-8.848-5.962-16.563-14.812-17.233l-63.938-4.827
			c-8.839-0.67-16.565,5.964-17.232,14.812c-0.669,8.85,5.963,16.564,14.812,17.231l63.939,4.829
			C79.209,259.529,79.617,259.544,80.023,259.544z"/>
		<path d="M393.639,141.704c2.825,2.01,6.079,2.978,9.3,2.978c5.025,0,9.974-2.352,13.107-6.754l37.808-53.142
			c5.146-7.232,3.454-17.263-3.777-22.407c-7.23-5.145-17.262-3.454-22.406,3.776l-37.811,53.142
			C384.716,126.525,386.408,136.56,393.639,141.704z"/>
		<path d="M499.953,237.438c-0.666-8.848-8.374-15.483-17.232-14.813l-63.94,4.83c-8.849,0.67-15.479,8.384-14.811,17.233
			c0.636,8.436,7.68,14.858,16.004,14.858c0.406,0,0.815-0.017,1.229-0.048l63.938-4.829
			C493.99,254,500.623,246.287,499.953,237.438z"/>
	</g>
</g>
<g>
</g>
<g>
</g>
<g>
</g>
<g>
</g>
<g>
</g>
<g>
</g>
<g>
</g>
<g>
</g>
<g>
</g>
<g>
</g>
<g>
</g>
<g>
</g>
<g>
</g>
<g>
</g>
<g>
</g>
</svg>
