<?xml version="1.0" encoding="utf-8"?>
<!-- Generator: Adobe Illustrator 16.0.0, SVG Export Plug-In . SVG Version: 6.00 Build 0)  -->
<!DOCTYPE svg PUBLIC "-//W3C//DTD SVG 1.1//EN" "http://www.w3.org/Graphics/SVG/1.1/DTD/svg11.dtd">
<svg version="1.1" id="Layer_1" xmlns="http://www.w3.org/2000/svg" xmlns:xlink="http://www.w3.org/1999/xlink" x="0px" y="0px"
	 width="512px" height="512px" viewBox="0 0 512 512" enable-background="new 0 0 512 512" xml:space="preserve">
<g>
	<path d="M403.766,391.73c0,18.911-12.316,35.001-29.35,40.669V302.653h-19.289c-25.395,0-46.053-20.659-46.053-46.054
		s20.658-46.054,46.053-46.054h19.289V79.601c17.033,5.668,29.35,21.758,29.35,40.669v90.276h21.422V120.27
		c0-35.493-28.773-64.27-64.27-64.27H151.074c-35.496,0-64.27,28.776-64.27,64.27V391.73c0,35.493,28.773,64.27,64.27,64.27h209.844
		c35.496,0,64.27-28.776,64.27-64.27v-89.077h-21.422V391.73z"/>
	<path d="M421.963,227.406h-62.354c-10.223,0-19.223,5.303-24.414,13.298c8.033,0.828,14.297,7.614,14.297,15.864
		c0,8.223-6.223,14.987-14.215,15.852c5.201,7.926,14.162,13.174,24.332,13.174h62.354c1.785,0,3.232-1.447,3.232-3.233V230.64
		C425.195,228.854,423.748,227.406,421.963,227.406z"/>
</g>
</svg>
