<?xml version="1.0" encoding="utf-8"?>
<!-- Generator: Adobe Illustrator 16.0.0, SVG Export Plug-In . SVG Version: 6.00 Build 0)  -->
<!DOCTYPE svg PUBLIC "-//W3C//DTD SVG 1.1//EN" "http://www.w3.org/Graphics/SVG/1.1/DTD/svg11.dtd">
<svg version="1.1" id="Layer_1" xmlns="http://www.w3.org/2000/svg" xmlns:xlink="http://www.w3.org/1999/xlink" x="0px" y="0px"
	 width="512px" height="512px" viewBox="0 0 512 512" enable-background="new 0 0 512 512" xml:space="preserve">
<path d="M401.722,146.177h-62.72v-26.589c0-21.278-17.31-38.588-38.588-38.588h-88.828c-21.278,0-38.588,17.31-38.588,38.588v26.589
	h-62.72c-26.074,0-47.216,21.14-47.216,47.215v190.396c0,26.075,21.142,47.213,47.216,47.213h291.443
	c26.074,0,47.216-21.138,47.216-47.213V193.392C448.938,167.316,427.796,146.177,401.722,146.177z M177,359.596
	c0,6.075-4.925,11-11,11s-11-4.925-11-11V228c0-6.075,4.925-11,11-11s11,4.925,11,11V359.596z M267,359.596c0,6.075-4.925,11-11,11
	s-11-4.925-11-11V228c0-6.075,4.925-11,11-11s11,4.925,11,11V359.596z M305.929,146.177h-99.857v-26.589
	c0-3.041,2.475-5.512,5.515-5.512h88.828c3.04,0,5.515,2.471,5.515,5.512V146.177z M357,359.596c0,6.075-4.925,11-11,11
	s-11-4.925-11-11V228c0-6.075,4.925-11,11-11s11,4.925,11,11V359.596z"/>
</svg>
