<?xml version="1.0" encoding="utf-8"?>
<!-- Generator: Adobe Illustrator 16.0.0, SVG Export Plug-In . SVG Version: 6.00 Build 0)  -->
<!DOCTYPE svg PUBLIC "-//W3C//DTD SVG 1.1//EN" "http://www.w3.org/Graphics/SVG/1.1/DTD/svg11.dtd">
<svg version="1.1" id="Layer_1" xmlns="http://www.w3.org/2000/svg" xmlns:xlink="http://www.w3.org/1999/xlink" x="0px" y="0px"
	 width="512px" height="512px" viewBox="0 0 512 512" enable-background="new 0 0 512 512" xml:space="preserve">
<g>
	<path d="M383.278,128.721c-21.251-21.251-46.879-36.535-74.853-45.007c-0.326,8.626-1.608,16.667-3.791,23.961
		c47.488,15.608,84.992,53.409,100.16,101.095c-7.639-5.349-16.686-10.259-27.059-14.646c-8.946-3.781-18.691-7.086-29.043-9.908
		c6.539,11.284,10.242,19.954,10.322,20.162c1.562,4.035,2.213,8.395,1.911,12.71c2.067,0.786,4.101,1.591,6.081,2.428
		c24.913,10.529,39.786,24.167,39.786,36.483s-14.874,25.955-39.786,36.482c-9.221,3.898-19.421,7.243-30.383,10.004
		c1.199-10.042,1.998-20.377,2.401-30.896c-2.702,4.668-5.158,8.658-7.004,11.574c-4.962,7.808-13.107,12.745-22.172,13.578
		l-0.002,97.459c2.835-5.05,5.521-10.532,8.028-16.465c5.774-13.66,10.462-29.156,13.967-45.895
		c16.738-3.505,32.233-8.191,45.895-13.966c10.373-4.386,19.42-9.296,27.059-14.646c-14.608,45.926-49.938,82.681-94.948,99.276
		l0,25.331c27.418-8.557,52.542-23.668,73.432-44.558C417.276,349.28,436,304.081,436,256S417.276,162.72,383.278,128.721z"/>
	<path d="M107.205,303.23c7.639,5.349,16.686,10.26,27.058,14.646c13.662,5.774,29.157,10.461,45.895,13.966
		c3.505,16.738,8.193,32.234,13.966,45.895c2.509,5.936,5.196,11.422,8.034,16.474l-0.005-97.419
		c-9.071-0.833-17.216-5.772-22.163-13.567c-1.572-2.481-4.097-6.564-7.015-11.625c0.403,10.516,1.203,20.848,2.4,30.888
		c-10.961-2.761-21.162-6.105-30.383-10.004c-24.913-10.527-39.786-24.167-39.786-36.482s14.873-25.954,39.786-36.483
		c1.979-0.836,4.013-1.643,6.08-2.428c-0.291-4.321,0.361-8.654,1.912-12.665c0.082-0.21,3.797-8.907,10.355-20.217
		c-10.365,2.824-20.122,6.132-29.077,9.917c-10.372,4.386-19.419,9.296-27.058,14.646c15.201-47.788,52.832-85.65,100.464-101.196
		c-2.172-7.294-3.444-15.335-3.763-23.955c-28.102,8.452-53.849,23.768-75.184,45.103C94.724,162.72,76,207.919,76,256
		s18.724,93.28,52.722,127.279c20.892,20.891,46.017,36.004,73.438,44.56l-0.001-25.331
		C157.145,385.915,121.813,349.159,107.205,303.23z"/>
	<path d="M345.025,209.788c-2.759-7.134-23.256-48.536-47.592-60.211c-0.017-0.009-13.418-6.224-17.672-8.196l-7.799-6.572
		c-0.534-0.452-1.324-0.419-1.821,0.076l-12.354,12.283c-0.5,0.511-0.364,1.246-0.364,1.246l12.892,80.883
		c0.041,0.285-0.029,0.579-0.201,0.813l-13.029,17.83c-0.207,0.284-0.538,0.451-0.891,0.451c-0.351,0-0.683-0.167-0.888-0.451
		l-13.029-17.83c-0.172-0.233-0.243-0.527-0.201-0.813l12.849-80.768c0-0.001,0.162-0.878-0.339-1.359l-12.35-12.285
		c-0.246-0.245-0.564-0.375-0.887-0.39c-0.001-0.005-0.004-0.01-0.006-0.016l-0.018,0.016c-0.322-0.01-0.648,0.093-0.914,0.314
		l-7.728,6.517c-4.126,1.887-17.721,8.105-18.121,8.295c-24.33,11.675-44.828,53.079-47.587,60.21
		c-0.88,2.276-1.168,4.731-0.85,7.151c2.657,19.745,22.566,51.948,26.529,58.203c2.76,4.35,7.447,6.729,12.242,6.729
		c2.524,0,5.074-0.671,7.387-2.047c1.167,3.27,2.825,6.315,4.869,9.109l0.009,161.741c0.001,9.702,7.867,17.565,17.568,17.563
		c9.702,0,17.565-7.863,17.563-17.564l0.186-142.565c1.239,0.104,2.475,0.164,3.691,0.164c1.177,0,2.364-0.059,3.555-0.155
		l-0.003,142.557c0,9.703,7.858,17.564,17.563,17.564c9.698,0,17.563-7.861,17.563-17.563l0.003-161.285
		c2.171-2.88,3.937-6.037,5.16-9.439c2.236,1.263,4.676,1.873,7.092,1.873c4.796,0,9.485-2.382,12.246-6.727
		c3.961-6.258,23.871-38.458,26.525-58.206C346.194,214.522,345.905,212.062,345.025,209.788z M195.586,216.631
		c3.039-6.338,8.627-15.831,14.767-24.178l0.008,55.926C204.175,237.447,197.854,224.744,195.586,216.631z M301.98,247.719
		l0.006-54.845c6.008,8.231,11.447,17.487,14.428,23.712C314.185,224.535,308.059,236.922,301.98,247.719z"/>
	<path d="M256.168,133.24c21.174,0,36.98-19.735,37.339-52.818c0.229-22.963-10.705-36.705-37.339-36.705
		c-26.634,0-37.568,13.742-37.343,36.705C219.19,113.505,234.987,133.24,256.168,133.24z"/>
</g>
</svg>
