<?xml version="1.0" encoding="utf-8"?>
<!-- Generator: Adobe Illustrator 16.0.0, SVG Export Plug-In . SVG Version: 6.00 Build 0)  -->
<!DOCTYPE svg PUBLIC "-//W3C//DTD SVG 1.1//EN" "http://www.w3.org/Graphics/SVG/1.1/DTD/svg11.dtd">
<svg version="1.1" id="Layer_1" xmlns="http://www.w3.org/2000/svg" xmlns:xlink="http://www.w3.org/1999/xlink" x="0px" y="0px"
	 width="512px" height="512px" viewBox="0 0 512 512" enable-background="new 0 0 512 512" xml:space="preserve">
<path d="M412.733,102.437c-12.788-12.795-28.342-25.016-47.093-26.315c-24.459-1.698-45.76,14.788-62.066,30.86
	c-17.07,16.837-33.024,39.553-29.001,64.967c3.199,20.189,17.329,36.958,31.352,50.923c0,0-16.844,23.813-35.849,42.818
	c-18.995,18.994-47.204,40.234-47.204,40.234c-13.974-14.021-30.728-28.153-50.923-31.352c-25.415-4.023-48.128,11.93-64.962,29.001
	c-16.077,16.307-32.566,37.607-30.866,62.067c1.303,18.752,13.519,34.301,26.316,47.093c30.184,30.158,84.836,30.294,117.674,4.492
	c73.339-57.938,139.177-123.777,197.117-197.117C443.026,187.274,442.89,132.61,412.733,102.437z"/>
</svg>
