<?xml version="1.0" encoding="utf-8"?>
<!-- Generator: Adobe Illustrator 16.0.0, SVG Export Plug-In . SVG Version: 6.00 Build 0)  -->
<!DOCTYPE svg PUBLIC "-//W3C//DTD SVG 1.1//EN" "http://www.w3.org/Graphics/SVG/1.1/DTD/svg11.dtd">
<svg version="1.1" id="Layer_1" xmlns="http://www.w3.org/2000/svg" xmlns:xlink="http://www.w3.org/1999/xlink" x="0px" y="0px"
	 width="512px" height="512px" viewBox="0 0 512 512" enable-background="new 0 0 512 512" xml:space="preserve">
<g>
	<path d="M118.945,106.913c-1.877-7.41-9.408-11.893-16.818-10.018c-7.413,1.879-11.897,9.409-10.019,16.821l90.439,356.838
		c1.589,6.271,7.224,10.446,13.409,10.446c1.127,0,2.271-0.139,3.413-0.428c7.409-1.877,11.895-9.409,10.017-16.819L118.945,106.913
		z"/>
	<path d="M419.98,207.42c-14.739-54.423-29.492-108.842-44.234-163.265c-1.598-5.891-4.399-12.21-14.929-12.842
		c-82.888-6.004-137.314,76.541-220.203,70.537c-6.541-0.806-10.745,2.6-9.148,8.491c14.743,54.422,29.372,108.877,44.233,163.266
		c2.385,8.728,8.388,12.035,14.931,12.841c82.887,6.004,137.315-76.54,220.205-70.536
		C417.376,216.717,421.577,213.311,419.98,207.42z M354.935,51.858c4.066,15.015,8.137,30.029,12.204,45.044
		c-17.436,0.574-32.826,4.092-49.132,10.203c-4.066-15.015-8.137-30.03-12.203-45.044C322.109,55.951,337.498,52.43,354.935,51.858z
		 M184.13,220.197c-4.627-17.059-9.246-34.122-13.868-51.182c18.328-0.531,34.591-4.503,51.602-11.227
		c-4.07-15.015-8.138-30.03-12.204-45.045c16.629-7.433,32.314-16.332,48.022-25.523c4.067,15.014,8.138,30.029,12.205,45.044
		c-15.709,9.19-31.395,18.092-48.023,25.524c4.623,17.06,9.244,34.122,13.866,51.182
		C218.718,215.694,202.457,219.665,184.13,220.197z M248.114,254.675c-4.129-15.234-8.256-30.47-12.384-45.706
		c16.513-7.377,32.087-16.201,47.683-25.327c4.128,15.236,8.256,30.471,12.383,45.707
		C280.202,238.475,264.627,247.298,248.114,254.675z M283.751,183.446c-4.619-17.061-9.242-34.122-13.864-51.183
		c15.707-9.17,31.404-17.945,48.12-25.157c4.624,17.06,9.246,34.121,13.867,51.181C315.16,165.501,299.458,174.275,283.751,183.446z
		 M344.546,203.877c-4.129-15.234-8.256-30.47-12.385-45.706c16.211-6.045,31.522-9.521,48.843-10.086
		c4.129,15.236,8.257,30.471,12.386,45.705C376.066,194.356,360.755,197.83,344.546,203.877z"/>
</g>
</svg>
