<?xml version="1.0" encoding="utf-8"?>
<!-- Generator: Adobe Illustrator 16.0.0, SVG Export Plug-In . SVG Version: 6.00 Build 0)  -->
<!DOCTYPE svg PUBLIC "-//W3C//DTD SVG 1.1//EN" "http://www.w3.org/Graphics/SVG/1.1/DTD/svg11.dtd">
<svg version="1.1" id="Layer_1" xmlns="http://www.w3.org/2000/svg" xmlns:xlink="http://www.w3.org/1999/xlink" x="0px" y="0px"
	 width="512px" height="512px" viewBox="0 0 512 512" enable-background="new 0 0 512 512" xml:space="preserve">
<g>
	<path d="M256,239.369c46.943,0,85-38.057,85-85s-38.057-85-85-85s-85,38.057-85,85S209.057,239.369,256,239.369z M209.08,140.174
		c5.6-5.597,14.672-5.597,20.269,0l17.098,17.099l36.206-36.208c5.596-5.596,14.669-5.596,20.269,0
		c5.592,5.599,5.592,14.672,0,20.268l-46.343,46.341c-2.797,2.796-6.459,4.194-10.131,4.194c-3.669,0-7.336-1.398-10.134-4.194
		l-27.233-27.234C203.486,154.846,203.486,145.77,209.08,140.174z"/>
	<circle cx="256" cy="357.631" r="85"/>
</g>
</svg>
