<?xml version="1.0" encoding="utf-8"?>
<!-- Generator: Adobe Illustrator 16.0.0, SVG Export Plug-In . SVG Version: 6.00 Build 0)  -->
<!DOCTYPE svg PUBLIC "-//W3C//DTD SVG 1.1//EN" "http://www.w3.org/Graphics/SVG/1.1/DTD/svg11.dtd">
<svg version="1.1" id="Layer_1" xmlns="http://www.w3.org/2000/svg" xmlns:xlink="http://www.w3.org/1999/xlink" x="0px" y="0px"
	 width="512px" height="512px" viewBox="0 0 512 512" enable-background="new 0 0 512 512" xml:space="preserve">
<g>
	<path d="M341.072,67.583H150.801v256.698c0,5.689-4.612,10.302-10.302,10.302s-10.302-4.612-10.302-10.302V67.583h-18.533
		c-22.891,0-41.447,18.558-41.447,41.447V402.97c0,22.89,18.557,41.447,41.447,41.447h229.408c22.891,0,41.447-18.558,41.447-41.447
		V109.03C382.52,86.141,363.963,67.583,341.072,67.583z M281.666,279.088c21.156,0,29.843,10.916,29.658,29.154
		c-0.284,26.28-12.838,41.955-29.658,41.955c-16.825,0-29.375-15.675-29.66-41.955C251.828,290.004,260.507,279.088,281.666,279.088
		z M341.072,429.417H111.664c-11.625,0-21.521-7.54-25.059-17.986h104.6h29.848c0.039-0.132,0.072-0.267,0.115-0.396
		c1.877-5.664,15.818-38.56,32.329-47.819c0.337-0.186,9.571-5.123,12.323-6.593h0.001l4.583-4.52
		c0.338-0.335,0.797-0.512,1.277-0.494c0.475,0.021,0.922,0.237,1.232,0.598l7.612,8.854c0.681,0.68,1.93,0.6,2.527,0.002
		l7.617-8.856c0.31-0.36,0.756-0.577,1.231-0.598c0.476-0.016,0.938,0.159,1.276,0.493l4.636,4.562l11.988,6.5
		c16.539,9.276,30.482,42.171,32.361,47.837c0.047,0.142,0.083,0.287,0.125,0.431h2.506h21.338
		C362.596,421.877,352.699,429.417,341.072,429.417z"/>
	<path d="M417.081,118.57h-15.427v61.454h15.427c10.388,0,18.813-8.423,18.813-18.813v-23.829
		C435.894,126.993,427.469,118.57,417.081,118.57z"/>
	<path d="M417.081,195.361h-15.427v61.454h15.427c10.388,0,18.813-8.423,18.813-18.813v-23.829
		C435.894,203.784,427.469,195.361,417.081,195.361z"/>
	<path d="M417.081,272.152h-15.427v61.454h15.427c10.388,0,18.813-8.423,18.813-18.813v-23.828
		C435.894,280.575,427.469,272.152,417.081,272.152z"/>
</g>
</svg>
