<?xml version="1.0" encoding="utf-8"?>
<!-- Generator: Adobe Illustrator 16.0.0, SVG Export Plug-In . SVG Version: 6.00 Build 0)  -->
<!DOCTYPE svg PUBLIC "-//W3C//DTD SVG 1.1//EN" "http://www.w3.org/Graphics/SVG/1.1/DTD/svg11.dtd">
<svg version="1.1" id="Layer_1" xmlns="http://www.w3.org/2000/svg" xmlns:xlink="http://www.w3.org/1999/xlink" x="0px" y="0px"
	 width="512px" height="512px" viewBox="0 0 512 512" enable-background="new 0 0 512 512" xml:space="preserve">
<g>
	<path d="M420.123,105.18l-53.916-53.916C362.837,47.894,358.266,46,353.5,46h-195c-39.639,0-71.887,32.249-71.887,71.889v276.223
		C86.613,433.75,118.861,466,158.5,466h195c39.639,0,71.887-32.25,71.887-71.889V117.889
		C425.387,113.122,423.494,108.551,420.123,105.18z M389.443,394.111c0,19.82-16.125,35.945-35.943,35.945h-195
		c-19.818,0-35.943-16.125-35.943-35.945V117.889c0-19.82,16.125-35.945,35.943-35.945h155.82v55.659
		c0,10.733,8.732,19.464,19.465,19.464h55.658V394.111z"/>
	<path d="M232.102,192.329l-6.958-6.958l6.958-6.958c5.858-5.858,5.858-15.355,0-21.213c-5.857-5.857-15.355-5.858-21.213,0
		l-6.959,6.958l-6.958-6.958c-5.857-5.858-15.355-5.857-21.212,0c-5.858,5.858-5.858,15.355,0,21.213l6.958,6.958l-6.958,6.958
		c-5.858,5.858-5.858,15.355,0,21.213c2.929,2.929,6.768,4.393,10.606,4.393s7.678-1.464,10.606-4.394l6.958-6.958l6.959,6.958
		c2.929,2.929,6.767,4.394,10.606,4.394c3.839,0,7.678-1.465,10.606-4.393C237.96,207.684,237.96,198.187,232.102,192.329z"/>
	<path d="M316.93,207.823l-6.958-6.958c-5.857-5.858-15.355-5.857-21.212,0c-5.858,5.858-5.858,15.355,0,21.213l6.958,6.958
		l-6.958,6.958c-5.858,5.858-5.858,15.355,0,21.213c2.929,2.929,6.768,4.393,10.606,4.393s7.678-1.464,10.606-4.394l6.958-6.958
		l6.959,6.958c2.929,2.929,6.767,4.394,10.606,4.394c3.839,0,7.678-1.465,10.606-4.393c5.858-5.858,5.858-15.355,0-21.213
		l-6.958-6.958l6.958-6.958c5.858-5.858,5.858-15.355,0-21.213c-5.857-5.857-15.355-5.858-21.213,0L316.93,207.823z"/>
	<path d="M284.171,308.151c-5.857-5.857-15.355-5.858-21.213,0L256,315.11l-6.959-6.958c-5.856-5.858-15.354-5.857-21.212,0
		c-5.858,5.858-5.858,15.355,0,21.213l6.958,6.958l-6.958,6.958c-5.858,5.858-5.858,15.355,0,21.213
		c2.929,2.929,6.768,4.393,10.606,4.393s7.678-1.464,10.605-4.394l6.959-6.958l6.958,6.958c2.929,2.929,6.767,4.394,10.606,4.394
		c3.839,0,7.678-1.465,10.606-4.393c5.858-5.858,5.858-15.355,0-21.213l-6.958-6.958l6.958-6.958
		C290.029,323.507,290.029,314.009,284.171,308.151z"/>
</g>
</svg>
