<?xml version="1.0" encoding="iso-8859-1"?>
<!-- Generator: Adobe Illustrator 18.0.0, SVG Export Plug-In . SVG Version: 6.00 Build 0)  -->
<!DOCTYPE svg PUBLIC "-//W3C//DTD SVG 1.1//EN" "http://www.w3.org/Graphics/SVG/1.1/DTD/svg11.dtd">
<svg version="1.1" id="Capa_1" xmlns="http://www.w3.org/2000/svg" xmlns:xlink="http://www.w3.org/1999/xlink" x="0px" y="0px"
	 viewBox="0 0 193.291 193.291" style="enable-background:new 0 0 193.291 193.291;" xml:space="preserve">
<g>
	<path d="M187.992,32.878c-1.133-1.19-2.703-1.863-4.346-1.863c-0.048,0-0.093,0-0.14,0c-6.422,0-12.409-2.565-16.869-7.229
		c-4.528-4.735-6.844-10.947-6.521-17.491c0.08-1.641-0.515-3.243-1.647-4.433C157.338,0.673,155.767,0,154.124,0H39.167
		c-1.643,0-3.214,0.673-4.346,1.863c-1.133,1.19-1.728,2.792-1.647,4.433c0.323,6.544-1.992,12.756-6.521,17.491
		c-4.46,4.664-10.447,7.229-16.869,7.229c-0.046,0-0.089,0-0.14,0c-1.643,0-3.213,0.673-4.346,1.863
		c-1.14,1.197-1.734,2.811-1.646,4.46c2.067,38.276,16.484,109.316,89.817,155.043c0.972,0.606,2.073,0.909,3.175,0.909
		s2.203-0.303,3.175-0.909c73.333-45.728,87.75-116.768,89.817-155.043C189.727,35.689,189.132,34.075,187.992,32.878z
		 M96.646,180.178C34.116,139.513,19.062,78.827,16.033,42.47c7.32-1.296,14.016-4.872,19.293-10.39
		c5.268-5.509,8.608-12.596,9.58-20.081h103.479c0.972,7.484,4.313,14.572,9.58,20.081c5.277,5.519,11.972,9.094,19.293,10.39
		C174.229,78.827,159.175,139.513,96.646,180.178z"/>
	<path d="M96.646,27.209c-29.413,0-53.342,23.929-53.342,53.342s23.929,53.342,53.342,53.342s53.342-23.929,53.342-53.342
		S126.059,27.209,96.646,27.209z M96.646,121.893c-22.796,0-41.342-18.546-41.342-41.342S73.85,39.209,96.646,39.209
		s41.342,18.546,41.342,41.342S119.441,121.893,96.646,121.893z"/>
	<path d="M105.063,80.369l9.953-9.953c2.344-2.343,2.344-6.142,0-8.485c-2.342-2.343-6.143-2.343-8.484,0l-9.808,9.808
		l-9.891-10.235c-2.302-2.383-6.101-2.448-8.484-0.145c-2.383,2.303-2.447,6.101-0.145,8.484l10.034,10.382L77.775,90.687
		c-2.344,2.343-2.344,6.142,0,8.485c1.171,1.171,2.707,1.757,4.242,1.757s3.071-0.586,4.242-1.757l10.317-10.317l10.382,10.744
		c1.177,1.218,2.745,1.831,4.315,1.831c1.501,0,3.004-0.56,4.169-1.686c2.383-2.303,2.447-6.101,0.145-8.484L105.063,80.369z"/>
</g>
<g>
</g>
<g>
</g>
<g>
</g>
<g>
</g>
<g>
</g>
<g>
</g>
<g>
</g>
<g>
</g>
<g>
</g>
<g>
</g>
<g>
</g>
<g>
</g>
<g>
</g>
<g>
</g>
<g>
</g>
</svg>
