<?xml version="1.0" encoding="utf-8"?>
<!-- Generator: Adobe Illustrator 16.0.0, SVG Export Plug-In . SVG Version: 6.00 Build 0)  -->
<!DOCTYPE svg PUBLIC "-//W3C//DTD SVG 1.1//EN" "http://www.w3.org/Graphics/SVG/1.1/DTD/svg11.dtd">
<svg version="1.1" id="Layer_1" xmlns="http://www.w3.org/2000/svg" xmlns:xlink="http://www.w3.org/1999/xlink" x="0px" y="0px"
	 width="512px" height="512px" viewBox="0 0 512 512" enable-background="new 0 0 512 512" xml:space="preserve">
<g>
	<path d="M298.53,178.699l-45.643,31.957l-36.33-24.183c-5.219-3.479-12.266-2.063-15.74,3.157
		c-3.474,5.223-2.06,12.268,3.159,15.743l42.782,28.478c1.906,1.27,4.098,1.902,6.289,1.902c2.28,0,4.558-0.686,6.512-2.055
		l51.991-36.4c5.137-3.594,6.385-10.674,2.79-15.809C310.744,176.355,303.666,175.104,298.53,178.699z"/>
	<path d="M180.552,80.154c-6.221-5.476-14.378-8.802-23.315-8.802c-19.5,0-35.309,15.807-35.309,35.31
		c0,8.503,3.007,16.299,8.013,22.396C142.68,109.023,160.056,92.213,180.552,80.154z"/>
	<path d="M382.06,129.058c5.005-6.097,8.013-13.893,8.013-22.396c0-19.503-15.809-35.31-35.309-35.31
		c-8.938,0-17.094,3.326-23.315,8.802C351.944,92.213,369.32,109.023,382.06,129.058z"/>
	<path d="M393.875,395.71l0.052-186.783C393.927,132.752,332.176,71,256,71s-137.927,61.752-137.927,137.927l0.052,186.783
		c-5.906,4.641-9.702,11.845-9.702,19.938c0,14.003,11.352,25.352,25.352,25.352h244.45c14,0,25.352-11.349,25.352-25.352
		C403.577,407.555,399.779,400.351,393.875,395.71z M256,305.421c-50.157,0-90.817-40.662-90.817-90.817
		s40.661-90.817,90.817-90.817c50.157,0,90.815,40.662,90.815,90.817S306.157,305.421,256,305.421z"/>
</g>
</svg>
