<?xml version="1.0" encoding="UTF-8" standalone="no" ?><!DOCTYPE svg PUBLIC "-//W3C//DTD SVG 1.1//EN" "http://www.w3.org/Graphics/SVG/1.1/DTD/svg11.dtd">
<svg xmlns="http://www.w3.org/2000/svg" xmlns:xlink="http://www.w3.org/1999/xlink" version="1.1" width="360" height="120" xml:space="preserve"><desc>Created with Fabric.js 1.6.0-rc.1</desc><defs></defs><rect x="-178.5" y="-58.5" rx="10" ry="10" width="357" height="117" style="stroke: #fff; stroke-width: 3; stroke-dasharray: none; stroke-linecap: butt; stroke-linejoin: miter; stroke-miterlimit: 10; fill: transparent; fill-rule: nonzero; opacity: 1;" transform="translate(180 60)"/>
<g transform="translate(61.39 60) scale(0.62 0.62)">
<path d="M 187.992 32.878 c -1.133 -1.19 -2.703 -1.863 -4.346 -1.863 c -0.048 0 -0.093 0 -0.14 0 c -6.422 0 -12.409 -2.565 -16.869 -7.229 c -4.528 -4.735 -6.844 -10.947 -6.521 -17.491 c 0.08 -1.641 -0.515 -3.243 -1.647 -4.433 C 157.338 0.673 155.767 0 154.124 0 H 39.167 c -1.643 0 -3.214 0.673 -4.346 1.863 c -1.133 1.19 -1.728 2.792 -1.647 4.433 c 0.323 6.544 -1.992 12.756 -6.521 17.491 c -4.46 4.664 -10.447 7.229 -16.869 7.229 c -0.046 0 -0.089 0 -0.14 0 c -1.643 0 -3.213 0.673 -4.346 1.863 c -1.14 1.197 -1.734 2.811 -1.646 4.46 c 2.067 38.276 16.484 109.316 89.817 155.043 c 0.972 0.606 2.073 0.909 3.175 0.909 s 2.203 -0.303 3.175 -0.909 c 73.333 -45.728 87.75 -116.768 89.817 -155.043 C 189.727 35.689 189.132 34.075 187.992 32.878 z M 96.646 180.178 C 34.116 139.513 19.062 78.827 16.033 42.47 c 7.32 -1.296 14.016 -4.872 19.293 -10.39 c 5.268 -5.509 8.608 -12.596 9.58 -20.081 h 103.479 c 0.972 7.484 4.313 14.572 9.58 20.081 c 5.277 5.519 11.972 9.094 19.293 10.39 C 174.229 78.827 159.175 139.513 96.646 180.178 z" style="stroke: none; stroke-width: 1; stroke-dasharray: none; stroke-linecap: butt; stroke-linejoin: miter; stroke-miterlimit: 10; fill: rgb(0,0,0); fill-rule: nonzero; opacity: 1;" transform="translate(0 0) translate(-96.63972349643717, -96.6455) " stroke-linecap="round" />
<path d="M 96.646 27.209 c -29.413 0 -53.342 23.929 -53.342 53.342 s 23.929 53.342 53.342 53.342 s 53.342 -23.929 53.342 -53.342 S 126.059 27.209 96.646 27.209 z M 96.646 121.893 c -22.796 0 -41.342 -18.546 -41.342 -41.342 S 73.85 39.209 96.646 39.209 s 41.342 18.546 41.342 41.342 S 119.441 121.893 96.646 121.893 z" style="stroke: none; stroke-width: 1; stroke-dasharray: none; stroke-linecap: butt; stroke-linejoin: miter; stroke-miterlimit: 10; fill: rgb(0,0,0); fill-rule: nonzero; opacity: 1;" transform="translate(0.01 -16.09) translate(-96.646, -80.551) " stroke-linecap="round" />
<path d="M 105.063 80.369 l 9.953 -9.953 c 2.344 -2.343 2.344 -6.142 0 -8.485 c -2.342 -2.343 -6.143 -2.343 -8.484 0 l -9.808 9.808 l -9.891 -10.235 c -2.302 -2.383 -6.101 -2.448 -8.484 -0.145 c -2.383 2.303 -2.447 6.101 -0.145 8.484 l 10.034 10.382 L 77.775 90.687 c -2.344 2.343 -2.344 6.142 0 8.485 c 1.171 1.171 2.707 1.757 4.242 1.757 s 3.071 -0.586 4.242 -1.757 l 10.317 -10.317 l 10.382 10.744 c 1.177 1.218 2.745 1.831 4.315 1.831 c 1.501 0 3.004 -0.56 4.169 -1.686 c 2.383 -2.303 2.447 -6.101 0.145 -8.484 L 105.063 80.369 z" style="stroke: none; stroke-width: 1; stroke-dasharray: none; stroke-linecap: butt; stroke-linejoin: miter; stroke-miterlimit: 10; fill: rgb(0,0,0); fill-rule: nonzero; opacity: 1;" transform="translate(0 -16.09) translate(-96.6446245104966, -80.55168389398546) " stroke-linecap="round" />
</g>
</svg>