<?xml version="1.0" encoding="UTF-8" standalone="no" ?><!DOCTYPE svg PUBLIC "-//W3C//DTD SVG 1.1//EN" "http://www.w3.org/Graphics/SVG/1.1/DTD/svg11.dtd">
<svg xmlns="http://www.w3.org/2000/svg" xmlns:xlink="http://www.w3.org/1999/xlink" version="1.1" width="360" height="120" xml:space="preserve"><desc>Created with Fabric.js 1.6.0-rc.1</desc><defs></defs><rect x="-178.5" y="-58.5" rx="10" ry="10" width="357" height="117" style="stroke: #fff; stroke-width: 3; stroke-dasharray: none; stroke-linecap: butt; stroke-linejoin: miter; stroke-miterlimit: 10; fill: transparent; fill-rule: nonzero; opacity: 1;" transform="translate(180 60)"/>
<g transform="translate(358.38 60) scale(0.14 0.14)">
<path d="m 399.28168 -174.03197 l 0 25.52746 l -10.94632 0 l 0 1.12814 c -1.91484 8.55374 -6.87265 19.88209 -24.64974 26.11247 c 0 0 -0.0726 -0.00043 -0.0812 0 c -3.58994 0.0427 -6.47523 2.95879 -6.47523 6.55942 c 0 3.62883 2.93016 6.55942 6.55899 6.55942 l 24.64974 0 l 0 17.129696 l 10.94633 0 l 0 652.684424 l -74.28425 0 l 0 64.29897 l 427.32372 0 l 0 -64.29897 l -117.81871 0 a 30.084471 30.084471 0 0 0 15.41656 -26.69748 l 0 -434.1344 l 15.75116 0 l 0 181.53352 a 23.399032 23.399032 0 1 0 46.79322 0 l 0 -186.379376 l 0 -30.457498 c 0 -28.0397 -22.5973 -50.637433 -50.637 -50.637433 l -162.35609 0 c -28.04013 0 -50.59556 22.597733 -50.59556 50.637433 l 0 28.828113 a 23.399032 23.399032 0 0 0 0 1.629385 l 0 4.845856 l 0 181.53352 a 23.399032 23.399032 0 1 0 46.79323 0 l 0 -181.53352 l 15.79303 0 l 0 434.1344 a 30.084471 30.084471 0 0 0 15.45844 26.69748 l -86.06642 0 l 0 -652.684424 l 10.94632 0 l 0 -17.129696 l 125.46438 0 c -29.00502 1.75416 -51.9741 25.784284 -51.9741 55.23287 c 0 30.589969 24.76854 55.3999567 55.35808 55.3999567 c 30.59082 0 55.40038 -24.8099877 55.40038 -55.3999567 c 0 -29.448586 -22.96651 -53.47871 -51.97452 -55.23287 l 63.58918 0 c 3.62926 0 6.55942 -2.93059 6.55942 -6.55942 c 0 -3.62883 -2.93016 -6.55942 -6.55942 -6.55942 l -24.39933 0 c -51.00279 -1.54307 -99.15705 -1.19565 -136.4107 -7.14443 c -15.08752 -2.40925 -27.29787 -13.08978 -35.05337 -19.51117 l 0 -0.58501 l -10.94632 0 l 0 -25.52746 l -41.57133 0 z m 172.34222 456.31934 l 18.13177 0 l 0 252.68421 a 30.084471 30.084471 0 0 0 15.45844 26.69748 l -49.00719 0 a 30.084471 30.084471 0 0 0 15.41698 -26.69748 l 0 -252.68421 z" style="stroke: none; stroke-width: 40.00000381; stroke-dasharray: none; stroke-linecap: butt; stroke-linejoin: miter; stroke-miterlimit: 10; fill: rgba(0,0,0,1); fill-rule: nonzero; opacity: 1;" transform="translate(0 0) translate(-538.6618599999999, -225.96802999999997)  matrix(1 0 0 1 -325 174.03197) " stroke-linecap="round" />
</g>
</svg>