<?xml version="1.0" encoding="UTF-8" standalone="no" ?><!DOCTYPE svg PUBLIC "-//W3C//DTD SVG 1.1//EN" "http://www.w3.org/Graphics/SVG/1.1/DTD/svg11.dtd">
<svg xmlns="http://www.w3.org/2000/svg" xmlns:xlink="http://www.w3.org/1999/xlink" version="1.1" width="360" height="120" xml:space="preserve"><desc>Created with Fabric.js 1.6.0-rc.1</desc><defs></defs><rect x="-178.5" y="-58.5" rx="10" ry="10" width="357" height="117" style="stroke: #fff; stroke-width: 3; stroke-dasharray: none; stroke-linecap: butt; stroke-linejoin: miter; stroke-miterlimit: 10; fill: antiquewhite; fill-rule: nonzero; opacity: 1;" transform="translate(180 60)"/>
<g transform="translate(91 91.03) scale(0.08 0.08)">
<path d="M 412.733 102.437 c -12.788 -12.795 -28.342 -25.016 -47.093 -26.315 c -24.459 -1.698 -45.76 14.788 -62.066 30.86 c -17.07 16.837 -33.024 39.553 -29.001 64.967 c 3.199 20.189 17.329 36.958 31.352 50.923 c 0 0 -16.844 23.813 -35.849 42.818 c -18.995 18.994 -47.204 40.234 -47.204 40.234 c -13.974 -14.021 -30.728 -28.153 -50.923 -31.352 c -25.415 -4.023 -48.128 11.93 -64.962 29.001 c -16.077 16.307 -32.566 37.607 -30.866 62.067 c 1.303 18.752 13.519 34.301 26.316 47.093 c 30.184 30.158 84.836 30.294 117.674 4.492 c 73.339 -57.938 139.177 -123.777 197.117 -197.117 C 443.026 187.274 442.89 132.61 412.733 102.437 z" style="stroke: none; stroke-width: 1; stroke-dasharray: none; stroke-linecap: butt; stroke-linejoin: miter; stroke-miterlimit: 10; fill: #000000; fill-rule: nonzero; opacity: 1;" transform="translate(0 0) translate(-255.70082173121443, -256.0005182450168) " stroke-linecap="round" />
</g>
</svg>