<?xml version="1.0" encoding="UTF-8" standalone="no" ?><!DOCTYPE svg PUBLIC "-//W3C//DTD SVG 1.1//EN" "http://www.w3.org/Graphics/SVG/1.1/DTD/svg11.dtd">
<svg xmlns="http://www.w3.org/2000/svg" xmlns:xlink="http://www.w3.org/1999/xlink" version="1.1" width="160" height="400" xml:space="preserve"><desc>Created with Fabric.js 1.6.0-rc.1</desc><defs></defs><rect x="-78.5" y="-198.5" rx="0" ry="0" width="157" height="397" style="stroke: #fff; stroke-width: 3; stroke-dasharray: none; stroke-linecap: butt; stroke-linejoin: miter; stroke-miterlimit: 10; fill: antiquewhite; fill-rule: nonzero; opacity: 1;" transform="translate(80 200)"/>
<g transform="translate(78.06 94.61) scale(0.08 0.08)">
<path d="M 401.722 146.177 h -62.72 v -26.589 c 0 -21.278 -17.31 -38.588 -38.588 -38.588 h -88.828 c -21.278 0 -38.588 17.31 -38.588 38.588 v 26.589 h -62.72 c -26.074 0 -47.216 21.14 -47.216 47.215 v 190.396 c 0 26.075 21.142 47.213 47.216 47.213 h 291.443 c 26.074 0 47.216 -21.138 47.216 -47.213 V 193.392 C 448.938 167.316 427.796 146.177 401.722 146.177 z M 177 359.596 c 0 6.075 -4.925 11 -11 11 s -11 -4.925 -11 -11 V 228 c 0 -6.075 4.925 -11 11 -11 s 11 4.925 11 11 V 359.596 z M 267 359.596 c 0 6.075 -4.925 11 -11 11 s -11 -4.925 -11 -11 V 228 c 0 -6.075 4.925 -11 11 -11 s 11 4.925 11 11 V 359.596 z M 305.929 146.177 h -99.857 v -26.589 c 0 -3.041 2.475 -5.512 5.515 -5.512 h 88.828 c 3.04 0 5.515 2.471 5.515 5.512 V 146.177 z M 357 359.596 c 0 6.075 -4.925 11 -11 11 s -11 -4.925 -11 -11 V 228 c 0 -6.075 4.925 -11 11 -11 s 11 4.925 11 11 V 359.596 z" style="stroke: none; stroke-width: 1; stroke-dasharray: none; stroke-linecap: butt; stroke-linejoin: miter; stroke-miterlimit: 10; fill: #000000; fill-rule: nonzero; opacity: 1;" transform="translate(0 0) translate(-255.9994999999999, -256.0005) " stroke-linecap="round" />
</g>
</svg>