<?xml version="1.0" encoding="UTF-8" standalone="no" ?><!DOCTYPE svg PUBLIC "-//W3C//DTD SVG 1.1//EN" "http://www.w3.org/Graphics/SVG/1.1/DTD/svg11.dtd">
<svg xmlns="http://www.w3.org/2000/svg" xmlns:xlink="http://www.w3.org/1999/xlink" version="1.1" width="360" height="120" xml:space="preserve"><desc>Created with Fabric.js 1.6.0-rc.1</desc><defs></defs><g transform="translate(1964 873)">
<image xlink:href="http://csid.la2dev.com/img/wood_texture3171.jpg" x="-1963.5" y="-872.5" style="stroke: none; stroke-width: 1; stroke-dasharray: none; stroke-linecap: butt; stroke-linejoin: miter; stroke-miterlimit: 10; fill: rgb(0,0,0); fill-rule: nonzero; opacity: 0.5;" width="3927" height="1745" preserveAspectRatio="none"></image>
</g>
<rect x="-178.5" y="-58.5" rx="0" ry="0" width="357" height="117" style="stroke: #fff; stroke-width: 3; stroke-dasharray: none; stroke-linecap: butt; stroke-linejoin: miter; stroke-miterlimit: 10; fill: transparent; fill-rule: nonzero; opacity: 1;" transform="translate(180 60)"/>
<g transform="translate(66 64) scale(0.2 0.2)">
<pattern id="SVGID_1" x="0" y="0" width="22.89528917910448" height="10.17374067164179">
<image x="0" y="0" width="3927" height="1745" xlink:href="http://csid.la2dev.com/img/wood_texture3171.jpg"></image>
</pattern>
<path d="M 416.529 232.52 H 451 c -5.16 -43.57 -24.631 -83.888 -56.131 -115.389 C 363.368 85.631 323.051 66.16 279.48 61 v 34.471 C 350.18 105.768 406.232 161.82 416.529 232.52 z" style="stroke: none; stroke-width: 1; stroke-dasharray: none; stroke-linecap: butt; stroke-linejoin: miter; stroke-miterlimit: 10; fill: url(#SVGID_1); fill-rule: nonzero; opacity: 1;" transform="translate(109.24 -109.24) translate(-365.24, -146.76) " stroke-linecap="round" />
<pattern id="SVGID_1" x="0" y="0" width="22.895289179104477" height="10.17374067164179">
<image x="0" y="0" width="3927" height="1745" xlink:href="http://csid.la2dev.com/img/wood_texture3171.jpg"></image>
</pattern>
<path d="M 232.52 95.471 V 61 c -43.57 5.16 -83.888 24.631 -115.389 56.131 C 85.631 148.632 66.16 188.949 61 232.52 h 34.471 C 105.768 161.82 161.82 105.768 232.52 95.471 z" style="stroke: none; stroke-width: 1; stroke-dasharray: none; stroke-linecap: butt; stroke-linejoin: miter; stroke-miterlimit: 10; fill: url(#SVGID_1); fill-rule: nonzero; opacity: 1;" transform="translate(-109.24 -109.24) translate(-146.76, -146.76) " stroke-linecap="round" />
<pattern id="SVGID_1" x="0" y="0" width="22.89528917910448" height="10.173740671641792">
<image x="0" y="0" width="3927" height="1745" xlink:href="http://csid.la2dev.com/img/wood_texture3171.jpg"></image>
</pattern>
<path d="M 279.48 416.529 V 451 c 43.57 -5.16 83.888 -24.631 115.389 -56.131 c 31.5 -31.501 50.971 -71.818 56.131 -115.389 h -34.471 C 406.232 350.18 350.18 406.232 279.48 416.529 z" style="stroke: none; stroke-width: 1; stroke-dasharray: none; stroke-linecap: butt; stroke-linejoin: miter; stroke-miterlimit: 10; fill: url(#SVGID_1); fill-rule: nonzero; opacity: 1;" transform="translate(109.24 109.24) translate(-365.24, -365.24) " stroke-linecap="round" />
<pattern id="SVGID_1" x="0" y="0" width="22.89528917910448" height="10.173740671641792">
<image x="0" y="0" width="3927" height="1745" xlink:href="http://csid.la2dev.com/img/wood_texture3171.jpg"></image>
</pattern>
<path d="M 95.471 279.48 H 61 c 5.16 43.57 24.631 83.888 56.131 115.389 c 31.501 31.5 71.818 50.971 115.389 56.131 v -34.471 C 161.82 406.232 105.768 350.18 95.471 279.48 z" style="stroke: none; stroke-width: 1; stroke-dasharray: none; stroke-linecap: butt; stroke-linejoin: miter; stroke-miterlimit: 10; fill: url(#SVGID_1); fill-rule: nonzero; opacity: 1;" transform="translate(-109.24 109.24) translate(-146.76, -365.24) " stroke-linecap="round" />
<pattern id="SVGID_1" x="0" y="0" width="40.035886508915546" height="17.790328993648494">
<image x="0" y="0" width="3927" height="1745" xlink:href="http://csid.la2dev.com/img/wood_texture3171.jpg"></image>
</pattern>
<path d="M 169.471 232.52 c 8.312 -30.596 32.453 -54.737 63.049 -63.049 v -35.038 c -49.473 9.538 -88.549 48.614 -98.087 98.087 H 169.471 z" style="stroke: none; stroke-width: 1; stroke-dasharray: none; stroke-linecap: butt; stroke-linejoin: miter; stroke-miterlimit: 10; fill: url(#SVGID_1); fill-rule: nonzero; opacity: 1;" transform="translate(-72.52 -72.52) translate(-183.4765, -183.4765) " stroke-linecap="round" />
<pattern id="SVGID_1" x="0" y="0" width="40.03588650891556" height="17.790328993648497">
<image x="0" y="0" width="3927" height="1745" xlink:href="http://csid.la2dev.com/img/wood_texture3171.jpg"></image>
</pattern>
<path d="M 169.471 279.48 h -35.038 c 9.538 49.473 48.614 88.549 98.087 98.087 v -35.038 C 201.924 334.218 177.782 310.076 169.471 279.48 z" style="stroke: none; stroke-width: 1; stroke-dasharray: none; stroke-linecap: butt; stroke-linejoin: miter; stroke-miterlimit: 10; fill: url(#SVGID_1); fill-rule: nonzero; opacity: 1;" transform="translate(-72.52 72.52) translate(-183.4765, -328.5235) " stroke-linecap="round" />
<pattern id="SVGID_1" x="0" y="0" width="40.03588650891556" height="17.790328993648497">
<image x="0" y="0" width="3927" height="1745" xlink:href="http://csid.la2dev.com/img/wood_texture3171.jpg"></image>
</pattern>
<path d="M 342.529 279.48 c -8.312 30.596 -32.453 54.737 -63.049 63.049 v 35.038 c 49.473 -9.538 88.549 -48.614 98.087 -98.087 H 342.529 z" style="stroke: none; stroke-width: 1; stroke-dasharray: none; stroke-linecap: butt; stroke-linejoin: miter; stroke-miterlimit: 10; fill: url(#SVGID_1); fill-rule: nonzero; opacity: 1;" transform="translate(72.52 72.52) translate(-328.5235, -328.5235) " stroke-linecap="round" />
<pattern id="SVGID_1" x="0" y="0" width="40.03588650891556" height="17.790328993648494">
<image x="0" y="0" width="3927" height="1745" xlink:href="http://csid.la2dev.com/img/wood_texture3171.jpg"></image>
</pattern>
<path d="M 342.529 232.52 h 35.038 c -9.538 -49.473 -48.614 -88.549 -98.087 -98.087 v 35.038 C 310.076 177.782 334.218 201.924 342.529 232.52 z" style="stroke: none; stroke-width: 1; stroke-dasharray: none; stroke-linecap: butt; stroke-linejoin: miter; stroke-miterlimit: 10; fill: url(#SVGID_1); fill-rule: nonzero; opacity: 1;" transform="translate(72.52 -72.52) translate(-328.5235, -183.4765) " stroke-linecap="round" />
<pattern id="SVGID_1" x="0" y="0" width="10.069230769230769" height="4.4743589743589745">
<image x="0" y="0" width="3927" height="1745" xlink:href="http://csid.la2dev.com/img/wood_texture3171.jpg"></image>
</pattern>
<path d="M 265.521 210.045 V 61 h -19.042 v 149.045 c -18.252 3.775 -32.658 18.182 -36.434 36.434 H 61 v 19.042 h 149.045 c 3.775 18.253 18.182 32.659 36.434 36.435 V 451 h 19.042 V 301.955 c 18.253 -3.775 32.659 -18.182 36.435 -36.435 H 451 v -19.042 H 301.955 C 298.18 228.227 283.773 213.82 265.521 210.045 z" style="stroke: none; stroke-width: 1; stroke-dasharray: none; stroke-linecap: butt; stroke-linejoin: miter; stroke-miterlimit: 10; fill: url(#SVGID_1); fill-rule: nonzero; opacity: 1;" transform="translate(0 0) translate(-256, -256) " stroke-linecap="round" />
</g>
<pattern id="SVGID_2" x="0" y="0" width="19.409444825450212" height="33.281202319194385">
<image x="0" y="0" width="3927" height="1745" xlink:href="http://csid.la2dev.com/img/wood_texture3171.jpg"></image>
</pattern>
	<g transform="translate(220.02 67.5) scale(0.72 1)">
		<text font-family="Arial Black" font-size="40" font-weight="normal" style="stroke: none; stroke-width: 1; stroke-dasharray: none; stroke-linecap: butt; stroke-linejoin: miter; stroke-miterlimit: 10; fill: url(#SVGID_2); fill-rule: nonzero; opacity: 1;" ><tspan x="-141.12" y="8.98" fill="[object Object]">effet garvure</tspan></text>
	</g>
</svg>