<?xml version="1.0" encoding="UTF-8" standalone="no" ?><!DOCTYPE svg PUBLIC "-//W3C//DTD SVG 1.1//EN" "http://www.w3.org/Graphics/SVG/1.1/DTD/svg11.dtd">
<svg xmlns="http://www.w3.org/2000/svg" xmlns:xlink="http://www.w3.org/1999/xlink" version="1.1" width="360" height="120" xml:space="preserve"><desc>Created with Fabric.js 1.6.0-rc.1</desc><defs></defs><g transform="translate(1964 873)">
<image xlink:href="http://csid.la2dev.com/img/wood_texture3171.jpg" x="-1963.5" y="-872.5" style="stroke: none; stroke-width: 1; stroke-dasharray: none; stroke-linecap: butt; stroke-linejoin: miter; stroke-miterlimit: 10; fill: rgb(0,0,0); fill-rule: nonzero; opacity: 0.5;" width="3927" height="1745" preserveAspectRatio="none"></image>
</g>
<rect x="-178.5" y="-58.5" rx="0" ry="0" width="357" height="117" style="stroke: #fff; stroke-width: 3; stroke-dasharray: none; stroke-linecap: butt; stroke-linejoin: miter; stroke-miterlimit: 10; fill: transparent; fill-rule: nonzero; opacity: 1;" transform="translate(180 60)"/>
<g transform="translate(71 59.87) scale(0.22 0.22)">
<pattern id="SVGID_1" x="0" y="0" width="29.89357976949896" height="5.070890762260948">
<image x="0" y="0" width="3927" height="1745" xlink:href="http://csid.la2dev.com/img/wood_texture3171.jpg"></image>
</pattern>
<path d="M 383.278 128.721 c -21.251 -21.251 -46.879 -36.535 -74.853 -45.007 c -0.326 8.626 -1.608 16.667 -3.791 23.961 c 47.488 15.608 84.992 53.409 100.16 101.095 c -7.639 -5.349 -16.686 -10.259 -27.059 -14.646 c -8.946 -3.781 -18.691 -7.086 -29.043 -9.908 c 6.539 11.284 10.242 19.954 10.322 20.162 c 1.562 4.035 2.213 8.395 1.911 12.71 c 2.067 0.786 4.101 1.591 6.081 2.428 c 24.913 10.529 39.786 24.167 39.786 36.483 s -14.874 25.955 -39.786 36.482 c -9.221 3.898 -19.421 7.243 -30.383 10.004 c 1.199 -10.042 1.998 -20.377 2.401 -30.896 c -2.702 4.668 -5.158 8.658 -7.004 11.574 c -4.962 7.808 -13.107 12.745 -22.172 13.578 l -0.002 97.459 c 2.835 -5.05 5.521 -10.532 8.028 -16.465 c 5.774 -13.66 10.462 -29.156 13.967 -45.895 c 16.738 -3.505 32.233 -8.191 45.895 -13.966 c 10.373 -4.386 19.42 -9.296 27.059 -14.646 c -14.608 45.926 -49.938 82.681 -94.948 99.276 l 0 25.331 c 27.418 -8.557 52.542 -23.668 73.432 -44.558 C 417.276 349.28 436 304.081 436 256 S 417.276 162.72 383.278 128.721 z" style="stroke: none; stroke-width: 1; stroke-dasharray: none; stroke-linecap: butt; stroke-linejoin: miter; stroke-miterlimit: 10; fill: url(#SVGID_1); fill-rule: nonzero; opacity: 1;" transform="translate(114.32 -0.22) translate(-370.317, -255.77450000000002) " stroke-linecap="round" />
<pattern id="SVGID_1" x="0" y="0" width="29.82501443023361" height="5.069461794560423">
<image x="0" y="0" width="3927" height="1745" xlink:href="http://csid.la2dev.com/img/wood_texture3171.jpg"></image>
</pattern>
<path d="M 107.205 303.23 c 7.639 5.349 16.686 10.26 27.058 14.646 c 13.662 5.774 29.157 10.461 45.895 13.966 c 3.505 16.738 8.193 32.234 13.966 45.895 c 2.509 5.936 5.196 11.422 8.034 16.474 l -0.005 -97.419 c -9.071 -0.833 -17.216 -5.772 -22.163 -13.567 c -1.572 -2.481 -4.097 -6.564 -7.015 -11.625 c 0.403 10.516 1.203 20.848 2.4 30.888 c -10.961 -2.761 -21.162 -6.105 -30.383 -10.004 c -24.913 -10.527 -39.786 -24.167 -39.786 -36.482 s 14.873 -25.954 39.786 -36.483 c 1.979 -0.836 4.013 -1.643 6.08 -2.428 c -0.291 -4.321 0.361 -8.654 1.912 -12.665 c 0.082 -0.21 3.797 -8.907 10.355 -20.217 c -10.365 2.824 -20.122 6.132 -29.077 9.917 c -10.372 4.386 -19.419 9.296 -27.058 14.646 c 15.201 -47.788 52.832 -85.65 100.464 -101.196 c -2.172 -7.294 -3.444 -15.335 -3.763 -23.955 c -28.102 8.452 -53.849 23.768 -75.184 45.103 C 94.724 162.72 76 207.919 76 256 s 18.724 93.28 52.722 127.279 c 20.892 20.891 46.017 36.004 73.438 44.56 l -0.001 -25.331 C 157.145 385.915 121.813 349.159 107.205 303.23 z" style="stroke: none; stroke-width: 1; stroke-dasharray: none; stroke-linecap: butt; stroke-linejoin: miter; stroke-miterlimit: 10; fill: url(#SVGID_1); fill-rule: nonzero; opacity: 1;" transform="translate(-114.17 -0.27) translate(-141.834, -255.72999999999996) " stroke-linecap="round" />
<pattern id="SVGID_1" x="0" y="0" width="21.832020945741675" height="5.227649924206567">
<image x="0" y="0" width="3927" height="1745" xlink:href="http://csid.la2dev.com/img/wood_texture3171.jpg"></image>
</pattern>
<path d="M 345.025 209.788 c -2.759 -7.134 -23.256 -48.536 -47.592 -60.211 c -0.017 -0.009 -13.418 -6.224 -17.672 -8.196 l -7.799 -6.572 c -0.534 -0.452 -1.324 -0.419 -1.821 0.076 l -12.354 12.283 c -0.5 0.511 -0.364 1.246 -0.364 1.246 l 12.892 80.883 c 0.041 0.285 -0.029 0.579 -0.201 0.813 l -13.029 17.83 c -0.207 0.284 -0.538 0.451 -0.891 0.451 c -0.351 0 -0.683 -0.167 -0.888 -0.451 l -13.029 -17.83 c -0.172 -0.233 -0.243 -0.527 -0.201 -0.813 l 12.849 -80.768 c 0 -0.001 0.162 -0.878 -0.339 -1.359 l -12.35 -12.285 c -0.246 -0.245 -0.564 -0.375 -0.887 -0.39 c -0.001 -0.005 -0.004 -0.01 -0.006 -0.016 l -0.018 0.016 c -0.322 -0.01 -0.648 0.093 -0.914 0.314 l -7.728 6.517 c -4.126 1.887 -17.721 8.105 -18.121 8.295 c -24.33 11.675 -44.828 53.079 -47.587 60.21 c -0.88 2.276 -1.168 4.731 -0.85 7.151 c 2.657 19.745 22.566 51.948 26.529 58.203 c 2.76 4.35 7.447 6.729 12.242 6.729 c 2.524 0 5.074 -0.671 7.387 -2.047 c 1.167 3.27 2.825 6.315 4.869 9.109 l 0.009 161.741 c 0.001 9.702 7.867 17.565 17.568 17.563 c 9.702 0 17.565 -7.863 17.563 -17.564 l 0.186 -142.565 c 1.239 0.104 2.475 0.164 3.691 0.164 c 1.177 0 2.364 -0.059 3.555 -0.155 l -0.003 142.557 c 0 9.703 7.858 17.564 17.563 17.564 c 9.698 0 17.563 -7.861 17.563 -17.563 l 0.003 -161.285 c 2.171 -2.88 3.937 -6.037 5.16 -9.439 c 2.236 1.263 4.676 1.873 7.092 1.873 c 4.796 0 9.485 -2.382 12.246 -6.727 c 3.961 -6.258 23.871 -38.458 26.525 -58.206 C 346.194 214.522 345.905 212.062 345.025 209.788 z M 195.586 216.631 c 3.039 -6.338 8.627 -15.831 14.767 -24.178 l 0.008 55.926 C 204.175 237.447 197.854 224.744 195.586 216.631 z M 301.98 247.719 l 0.006 -54.845 c 6.008 8.231 11.447 17.487 14.428 23.712 C 314.185 224.535 308.059 236.922 301.98 247.719 z" style="stroke: none; stroke-width: 1; stroke-dasharray: none; stroke-linecap: butt; stroke-linejoin: miter; stroke-miterlimit: 10; fill: url(#SVGID_1); fill-rule: nonzero; opacity: 1;" transform="translate(-0.06 45.38) translate(-255.9362962527923, -301.37999999999994) " stroke-linecap="round" />
<pattern id="SVGID_1" x="0" y="0" width="52.57808244728475" height="19.492197535828783">
<image x="0" y="0" width="3927" height="1745" xlink:href="http://csid.la2dev.com/img/wood_texture3171.jpg"></image>
</pattern>
<path d="M 256.168 133.24 c 21.174 0 36.98 -19.735 37.339 -52.818 c 0.229 -22.963 -10.705 -36.705 -37.339 -36.705 c -26.634 0 -37.568 13.742 -37.343 36.705 C 219.19 113.505 234.987 133.24 256.168 133.24 z" style="stroke: none; stroke-width: 1; stroke-dasharray: none; stroke-linecap: butt; stroke-linejoin: miter; stroke-miterlimit: 10; fill: url(#SVGID_1); fill-rule: nonzero; opacity: 1;" transform="translate(0.17 -167.52) translate(-256.166060274487, -88.47850000000001) " stroke-linecap="round" />
</g>
<pattern id="SVGID_2" x="0" y="0" width="19.72205438066465" height="24.392875072689726">
<image x="0" y="0" width="3927" height="1745" xlink:href="http://csid.la2dev.com/img/wood_texture3171.jpg"></image>
</pattern>
	<g transform="translate(218.01 66.74) scale(1 1.95)">
		<text font-family="Arial Black" font-size="28" font-weight="normal" style="stroke: none; stroke-width: 1; stroke-dasharray: none; stroke-linecap: butt; stroke-linejoin: miter; stroke-miterlimit: 10; fill: url(#SVGID_2); fill-rule: nonzero; opacity: 1;" ><tspan x="-99.56" y="6.29" fill="[object Object]">Effet garvure</tspan></text>
	</g>
</svg>