<?xml version="1.0" encoding="UTF-8" standalone="no" ?><!DOCTYPE svg PUBLIC "-//W3C//DTD SVG 1.1//EN" "http://www.w3.org/Graphics/SVG/1.1/DTD/svg11.dtd">
<svg xmlns="http://www.w3.org/2000/svg" xmlns:xlink="http://www.w3.org/1999/xlink" version="1.1" width="994" height="558" xml:space="preserve"><desc>Created with Fabric.js 1.6.0-rc.1</desc><defs><pattern x="0" y="0" id="backgroundColorPattern" width="1024" height="640" patternUnits="userSpaceOnUse"><image x="0" y="0" width="1024" height="640" xlink:href="http://csid.la2dev.com/img/bg-brick.jpg"></image></pattern></defs><rect x="0" y="0" width="994" height="558" fill="url(#backgroundColorPattern)"></rect><pattern id="SVGID_8" x="0" y="0" width="0.2777777777777778" height="0.8333333333333334">
<image x="0" y="0" width="100" height="100" xlink:href="http://csid.la2dev.com/media/cache/resolve/thumb_item_owl/uploads/matters/footer_lodyas.png"></image>
</pattern>
<filter id="SVGID_0" y="-28%" height="156%" x="-23%" width="146%" >
	<feGaussianBlur in="SourceAlpha" stdDeviation="2.5"></feGaussianBlur>
	<feOffset dx="5" dy="5" result="oBlur" ></feOffset>
	<feFlood flood-color="#656565"/>
	<feComposite in2="oBlur" operator="in" />
	<feMerge>
		<feMergeNode></feMergeNode>
		<feMergeNode in="SourceGraphic"></feMergeNode>
	</feMerge>
</filter>
<rect x="-180" y="-60" rx="0" ry="0" width="360" height="120" style="stroke: #fff; stroke-width: 0; stroke-dasharray: none; stroke-linecap: butt; stroke-linejoin: miter; stroke-miterlimit: 10; fill: url(#SVGID_8); fill-rule: nonzero; opacity: 1;filter: url(#SVGID_0);" transform="translate(497 279)"/>
<rect x="-180" y="-60" rx="0" ry="0" width="360" height="120" style="stroke: red; stroke-width: 1; stroke-dasharray: none; stroke-linecap: butt; stroke-linejoin: miter; stroke-miterlimit: 10; fill: transparent; fill-rule: nonzero; opacity: 0.5;" transform="translate(497.5 279.5)"/>
<g style="stroke: none; stroke-width: 1; stroke-dasharray: none; stroke-linecap: butt; stroke-linejoin: miter; stroke-miterlimit: 10; fill: url(#SVGID_7); fill-rule: nonzero; opacity: 1;" transform="translate(437 219) scale(0.23 0.23)" >
<pattern id="SVGID_7" x="0" y="0" width="0.27824003192657926" height="0.2777787033483707">
<image x="0" y="0" width="100" height="100" xlink:href="http://csid.la2dev.com/media/cache/resolve/thumb_item_owl/uploads/matters/footer_lodyas.jpg"></image>
</pattern>
<path d="M 412.733 102.437 c -12.788 -12.795 -28.342 -25.016 -47.093 -26.315 c -24.459 -1.698 -45.76 14.788 -62.066 30.86 c -17.07 16.837 -33.024 39.553 -29.001 64.967 c 3.199 20.189 17.329 36.958 31.352 50.923 c 0 0 -16.844 23.813 -35.849 42.818 c -18.995 18.994 -47.204 40.234 -47.204 40.234 c -13.974 -14.021 -30.728 -28.153 -50.923 -31.352 c -25.415 -4.023 -48.128 11.93 -64.962 29.001 c -16.077 16.307 -32.566 37.607 -30.866 62.067 c 1.303 18.752 13.519 34.301 26.316 47.093 c 30.184 30.158 84.836 30.294 117.674 4.492 c 73.339 -57.938 139.177 -123.777 197.117 -197.117 C 443.026 187.274 442.89 132.61 412.733 102.437 z" style="stroke: none; stroke-width: 1; stroke-dasharray: none; stroke-linecap: butt; stroke-linejoin: miter; stroke-miterlimit: 10; fill: url(#SVGID_7); fill-rule: nonzero; opacity: 1;" transform="" stroke-linecap="round" />
</g>
</svg>