<?xml version="1.0" encoding="UTF-8" standalone="no" ?><!DOCTYPE svg PUBLIC "-//W3C//DTD SVG 1.1//EN" "http://www.w3.org/Graphics/SVG/1.1/DTD/svg11.dtd">
<svg xmlns="http://www.w3.org/2000/svg" xmlns:xlink="http://www.w3.org/1999/xlink" version="1.1" width="994" height="558" xml:space="preserve"><desc>Created with Fabric.js 1.6.0-rc.1</desc><defs><pattern x="0" y="0" id="backgroundColorPattern" width="1024" height="640" patternUnits="userSpaceOnUse"><image x="0" y="0" width="1024" height="640" xlink:href="http://csid.la2dev.com/img/bg-brick.jpg"></image></pattern></defs><rect x="0" y="0" width="994" height="558" fill="url(#backgroundColorPattern)"></rect><pattern id="SVGID_5" x="0" y="0" width="0.2777777777777778" height="0.8333333333333334">
<image x="0" y="0" width="100" height="100" xlink:href="http://csid.la2dev.com/media/cache/thumb_item_owl/uploads/matters/footer_lodyas.png"></image>
</pattern>
<filter id="SVGID_0" y="-28%" height="156%" x="-23%" width="146%" >
	<feGaussianBlur in="SourceAlpha" stdDeviation="2.5"></feGaussianBlur>
	<feOffset dx="5" dy="5" result="oBlur" ></feOffset>
	<feFlood flood-color="#656565"/>
	<feComposite in2="oBlur" operator="in" />
	<feMerge>
		<feMergeNode></feMergeNode>
		<feMergeNode in="SourceGraphic"></feMergeNode>
	</feMerge>
</filter>
<rect x="-180" y="-60" rx="0" ry="0" width="360" height="120" style="stroke: #fff; stroke-width: 0; stroke-dasharray: none; stroke-linecap: butt; stroke-linejoin: miter; stroke-miterlimit: 10; fill: url(#SVGID_5); fill-rule: nonzero; opacity: 1;filter: url(#SVGID_0);" transform="translate(497 279)"/>
<rect x="-180" y="-60" rx="0" ry="0" width="360" height="120" style="stroke: red; stroke-width: 1; stroke-dasharray: none; stroke-linecap: butt; stroke-linejoin: miter; stroke-miterlimit: 10; fill: transparent; fill-rule: nonzero; opacity: 0.5;" transform="translate(497.5 279.5)"/>
<g style="stroke: none; stroke-width: 1; stroke-dasharray: none; stroke-linecap: butt; stroke-linejoin: miter; stroke-miterlimit: 10; fill: none; fill-rule: nonzero; opacity: 1;filter: url(#SVGID_4);" transform="translate(317 219) scale(0.23 0.23)" >
<path d="M 403.766 391.73 c 0 18.911 -12.316 35.001 -29.35 40.669 V 302.653 h -19.289 c -25.395 0 -46.053 -20.659 -46.053 -46.054 s 20.658 -46.054 46.053 -46.054 h 19.289 V 79.601 c 17.033 5.668 29.35 21.758 29.35 40.669 v 90.276 h 21.422 V 120.27 c 0 -35.493 -28.773 -64.27 -64.27 -64.27 H 151.074 c -35.496 0 -64.27 28.776 -64.27 64.27 V 391.73 c 0 35.493 28.773 64.27 64.27 64.27 h 209.844 c 35.496 0 64.27 -28.776 64.27 -64.27 v -89.077 h -21.422 V 391.73 z" style="stroke: none; stroke-width: 1; stroke-dasharray: none; stroke-linecap: butt; stroke-linejoin: miter; stroke-miterlimit: 10; fill: rgb(0,0,0); fill-rule: nonzero; opacity: 1;" transform="" stroke-linecap="round" />
<path d="M 421.963 227.406 h -62.354 c -10.223 0 -19.223 5.303 -24.414 13.298 c 8.033 0.828 14.297 7.614 14.297 15.864 c 0 8.223 -6.223 14.987 -14.215 15.852 c 5.201 7.926 14.162 13.174 24.332 13.174 h 62.354 c 1.785 0 3.232 -1.447 3.232 -3.233 V 230.64 C 425.195 228.854 423.748 227.406 421.963 227.406 z" style="stroke: none; stroke-width: 1; stroke-dasharray: none; stroke-linecap: butt; stroke-linejoin: miter; stroke-miterlimit: 10; fill: rgb(0,0,0); fill-rule: nonzero; opacity: 1;" transform="" stroke-linecap="round" />
</g>
</svg>