<?xml version="1.0" encoding="UTF-8" standalone="no" ?><!DOCTYPE svg PUBLIC "-//W3C//DTD SVG 1.1//EN" "http://www.w3.org/Graphics/SVG/1.1/DTD/svg11.dtd">
<svg xmlns="http://www.w3.org/2000/svg" xmlns:xlink="http://www.w3.org/1999/xlink" version="1.1" width="994" height="558" xml:space="preserve"><desc>Created with Fabric.js 1.6.0-rc.1</desc><defs><pattern x="0" y="0" id="backgroundColorPattern" width="1024" height="640" patternUnits="userSpaceOnUse"><image x="0" y="0" width="1024" height="640" xlink:href="http://csid.la2dev.com/img/bg-brick.jpg"></image></pattern></defs><rect x="0" y="0" width="994" height="558" fill="url(#backgroundColorPattern)"></rect><pattern id="SVGID_3" x="0" y="0" width="0.625" height="0.25">
<image x="0" y="0" width="100" height="100" xlink:href="http://csid.la2dev.com/media/cache/thumb_item_owl/uploads/matters/confectionary.png"></image>
</pattern>
<filter id="SVGID_0" y="-23%" height="146%" x="-26%" width="152%" >
	<feGaussianBlur in="SourceAlpha" stdDeviation="2.5"></feGaussianBlur>
	<feOffset dx="5" dy="5" result="oBlur" ></feOffset>
	<feFlood flood-color="#656565"/>
	<feComposite in2="oBlur" operator="in" />
	<feMerge>
		<feMergeNode></feMergeNode>
		<feMergeNode in="SourceGraphic"></feMergeNode>
	</feMerge>
</filter>
<rect x="-80" y="-200" rx="0" ry="0" width="160" height="400" style="stroke: #fff; stroke-width: 0; stroke-dasharray: none; stroke-linecap: butt; stroke-linejoin: miter; stroke-miterlimit: 10; fill: url(#SVGID_3); fill-rule: nonzero; opacity: 1;filter: url(#SVGID_0);" transform="translate(497 279)"/>
<rect x="-80" y="-200" rx="0" ry="0" width="160" height="400" style="stroke: red; stroke-width: 1; stroke-dasharray: none; stroke-linecap: butt; stroke-linejoin: miter; stroke-miterlimit: 10; fill: transparent; fill-rule: nonzero; opacity: 0.5;" transform="translate(497.5 279.5)"/>
<g style="stroke: none; stroke-width: 1; stroke-dasharray: none; stroke-linecap: butt; stroke-linejoin: miter; stroke-miterlimit: 10; fill: #912323; fill-rule: nonzero; opacity: 1;" transform="translate(417 79) scale(0.31 0.31)" >
<path d="M 308.617 161.456 c 5.531 -7.913 12.131 -17.612 18.53 -27.665 c 28.774 -45.199 29.59 -59.524 21.578 -67.983 c -15.415 -16.28 -57.143 -18.758 -79.223 -9.292 c -5.079 2.177 -9.934 5.039 -14.627 7.808 c -12.736 7.509 -19.344 10.651 -24.899 7.036 c -16.32 -10.633 -38.718 -13.932 -53.257 -7.854 c -8.667 3.627 -14.41 10.377 -16.172 19.009 c -1.429 7.005 -0.67 19.446 18.032 53.782 c 6.856 12.592 13.854 23.929 17.521 29.731 c -45.982 31.175 -77.693 96.034 -77.693 164.694 C 118.408 426.419 133.352 461 256 461 c 122.648 0 137.593 -34.581 137.593 -130.277 C 393.592 258.496 358.499 190.48 308.617 161.456 z M 197.68 126.42 c -17.129 -31.363 -16.115 -39.307 -16.068 -39.605 c 0.16 -0.784 0.457 -2.241 3.402 -3.474 c 7.049 -2.946 22.084 -1.229 33.229 6.03 c 17.335 11.294 34.799 0.99 47.553 -6.531 c 4.301 -2.535 8.362 -4.931 12.176 -6.564 c 15.729 -6.741 43.701 -3.975 53.379 2.818 c -0.781 4.021 -4.867 16.338 -25.514 48.085 c -6.029 9.27 -12.122 18.111 -17.068 25.121 c -10.503 -3.637 -21.475 -5.602 -32.769 -5.602 c -14.309 0 -28.107 3.134 -41.081 8.857 C 211.691 150.471 204.56 139.016 197.68 126.42 z M 270.492 373.277 v 4.058 c 0 6.683 -5.419 12.104 -12.104 12.104 h -2.64 c -6.684 0 -12.104 -5.422 -12.104 -12.104 v -4.056 c -15.585 -4.433 -24.565 -15.53 -28.022 -20.695 c -3.546 -5.292 -2.381 -12.428 2.664 -16.318 l 2.196 -1.695 c 2.668 -2.059 6.074 -2.91 9.397 -2.352 s 6.263 2.476 8.112 5.29 c 2.165 3.298 8.365 10.96 19.153 10.96 c 8.448 0 14.124 -4.863 14.124 -12.103 c 0 -7.47 -6.152 -11.074 -20.188 -17.52 c -14.601 -6.703 -34.594 -15.881 -34.594 -40.213 c 0 -15.881 10.794 -28.872 27.157 -33.815 v -4.516 c 0 -6.686 5.421 -12.104 12.104 -12.104 h 2.64 c 6.685 0 12.104 5.418 12.104 12.104 v 3.728 c 13.121 3.063 25.295 11.042 25.295 26.067 v 4.812 c 0 6.686 -5.418 12.107 -12.103 12.107 h -2.639 c -6.686 0 -12.106 -5.422 -12.106 -12.107 v -2.707 c -0.921 -0.951 -4.358 -2.88 -10.396 -2.88 c -10.291 0 -14.898 4.6 -14.898 9.158 c 0 6.184 4.81 9.414 19.264 15.975 c 14.99 6.809 35.518 16.129 35.518 41.598 C 298.425 351.493 288.872 367.861 270.492 373.277 z" style="stroke: none; stroke-width: 1; stroke-dasharray: none; stroke-linecap: butt; stroke-linejoin: miter; stroke-miterlimit: 10; fill: #912323; fill-rule: nonzero; opacity: 1;" transform="" stroke-linecap="round" />
</g>
</svg>