<?xml version="1.0"?>
<!DOCTYPE svg PUBLIC "-//W3C//DTD SVG 1.1//EN" "http://www.w3.org/Graphics/SVG/1.1/DTD/svg11.dtd">
<svg xmlns="http://www.w3.org/2000/svg" width="15cm" height="15cm">
	<g fill="#ffffff">
		<rect x="0" y="0" width="398" height="198"/>
		<g fill="none" stroke="#000000" stroke-width="2">
			<polyline points="238,33 231,32 221,30 212,29 199,29 185,29 169,29 151,31 138,34 126,37 117,41 111,44 106,47 104,51 102,54 102,57 102,60 110,73 116,77 124,81 132,86 143,89 155,91 168,92 182,92 195,92 208,92 220,90 227,88 233,87 233,86 233,85 231,83 229,81 224,76 215,69 208,65 198,61 185,57 169,54 148,50 126,48 104,48 85,48 65,53 53,58 42,66 34,72 29,79 26,84 26,87 28,96 34,100 56,108 67,112 81,115 96,117 115,119 135,119 156,119 176,119 196,118 211,116 224,114 234,113 241,111 241,110 241,108 240,106 239,104 234,101 227,97 219,94 205,89 192,87 177,84 162,83 145,82 125,81 111,81 98,82 87,84 78,87 73,89 70,92 74,92 77,93 82,94 89,95 99,97 110,99 124,101 142,101 168,104 257,104 295,104 333,104 417,104 439,103 456,102 467,101 474,100"/>
		</g>
	</g>
</svg>