<?xml version="1.0"?>
<!DOCTYPE svg PUBLIC "-//W3C//DTD SVG 1.1//EN" "http://www.w3.org/Graphics/SVG/1.1/DTD/svg11.dtd">
<svg xmlns="http://www.w3.org/2000/svg" width="15cm" height="15cm">
	<g fill="#ffffff">
		<rect x="0" y="0" width="398" height="198"/>
		<g fill="none" stroke="#000000" stroke-width="2">
			<polyline points="65,86 63,85 61,85 60,85 59,85 58,85 57,85 56,89 56,93 56,98 56,104 56,109 59,115 64,126 67,130 72,135 78,139 86,142 95,145 106,148 119,150 133,150 149,150 164,148 180,145 194,141 206,137 216,133 222,129 225,126 227,123 227,120 227,117 227,112 224,109 221,105 216,101 209,97 199,95 174,90 165,89 155,89 146,89 138,90 130,93 125,96 119,100 114,103 110,108 106,112 103,117 102,120 101,123 101,126 102,129 104,131 110,134 118,136 129,138 141,139 155,139 172,138 192,136 217,130 243,123 269,114 294,104 314,96 327,89 337,83 344,79 348,74 347,71 346,70 343,66 340,64 339,63 338,63"/>
		</g>
	</g>
</svg>